<svg width="100" height="93" xmlns="http://www.w3.org/2000/svg" xml:space="preserve" enable-background="new 0 0 100 100" version="1.1">

 <g>
  <title>Layer 1</title>
  <g id="svg_1">
   <g id="svg_2">
    <path fill="#FFF700" id="svg_3" d="m57.02849,19.29908c-0.023,0 -0.048,-0.008 -0.071,-0.008c-0.183,-0.04 -0.3,-0.215 -0.264,-0.401l2.484,-12.647c0.04,-0.186 0.215,-0.309 0.401,-0.271c0.184,0.037 0.303,0.212 0.271,0.398l-2.491,12.65c-0.027,0.165 -0.175,0.279 -0.33,0.279z"/>
   </g>
   <g id="svg_4">
    <path fill="#FFF700" id="svg_5" d="m50.98349,43.90908c-0.026,0 -0.051,0 -0.079,-0.005c-0.184,-0.045 -0.295,-0.229 -0.25,-0.412l5.467,-23.374c0.048,-0.187 0.233,-0.298 0.411,-0.25c0.185,0.038 0.296,0.229 0.253,0.407l-5.467,23.374c-0.041,0.156 -0.181,0.26 -0.335,0.26z"/>
   </g>
   <g id="svg_6">
    <path fill="#FFF700" id="svg_7" d="m66.59249,7.37708c-0.037,0 -0.079,-0.011 -0.116,-0.019c-0.176,-0.067 -0.269,-0.26 -0.202,-0.441l0.659,-1.828c0.065,-0.183 0.26,-0.273 0.436,-0.209c0.18,0.066 0.27,0.26 0.207,0.441l-0.664,1.83c-0.051,0.141 -0.178,0.226 -0.32,0.226z"/>
   </g>
   <g id="svg_8">
    <path fill="#FFF700" id="svg_9" d="m60.94949,21.87608c-0.037,0 -0.084,-0.007 -0.127,-0.024c-0.17,-0.069 -0.261,-0.271 -0.181,-0.446l5.521,-13.45c0.073,-0.175 0.271,-0.26 0.445,-0.191c0.174,0.071 0.253,0.276 0.187,0.446l-5.525,13.455c-0.059,0.13 -0.182,0.21 -0.32,0.21z"/>
   </g>
   <g id="svg_10">
    <path fill="#FFF700" id="svg_11" d="m53.57049,39.13708c-0.043,0 -0.091,-0.01 -0.134,-0.031c-0.169,-0.08 -0.249,-0.276 -0.175,-0.444l6.918,-15.854c0.074,-0.172 0.275,-0.244 0.443,-0.175c0.178,0.077 0.258,0.276 0.178,0.452l-6.914,15.846c-0.061,0.122 -0.181,0.206 -0.316,0.206z"/>
   </g>
   <g id="svg_12">
    <path fill="#FFF700" id="svg_13" d="m56.27049,36.00308c-0.048,0 -0.102,-0.008 -0.151,-0.035c-0.168,-0.085 -0.237,-0.29 -0.149,-0.457l8.812,-17.588c0.085,-0.17 0.29,-0.239 0.456,-0.151c0.165,0.085 0.234,0.29 0.154,0.457l-8.813,17.585c-0.062,0.123 -0.182,0.189 -0.309,0.189z"/>
   </g>
   <g id="svg_14">
    <path fill="#FFF700" id="svg_15" d="m70.18949,15.91008c-0.061,0 -0.116,-0.014 -0.175,-0.043c-0.16,-0.104 -0.219,-0.305 -0.117,-0.473l2.497,-4.213c0.096,-0.16 0.306,-0.216 0.468,-0.122c0.165,0.098 0.215,0.308 0.117,0.467l-2.497,4.218c-0.062,0.107 -0.176,0.166 -0.293,0.166z"/>
   </g>
   <g id="svg_16">
    <path fill="#FFF700" id="svg_17" d="m54.00949,41.66708c-0.064,0 -0.126,-0.019 -0.184,-0.051c-0.159,-0.101 -0.204,-0.313 -0.106,-0.467l15.447,-24.767c0.104,-0.165 0.312,-0.21 0.471,-0.115c0.158,0.104 0.209,0.314 0.105,0.471l-15.444,24.764c-0.066,0.108 -0.175,0.165 -0.289,0.165z"/>
   </g>
   <g id="svg_18">
    <path fill="#FFF700" id="svg_19" d="m79.15649,14.72208c-0.084,0 -0.169,-0.026 -0.238,-0.093c-0.133,-0.133 -0.135,-0.348 -0.006,-0.483l1.817,-1.881c0.133,-0.13 0.346,-0.138 0.483,-0.008c0.134,0.132 0.138,0.345 0.006,0.483l-1.817,1.884c-0.063,0.066 -0.154,0.098 -0.245,0.098z"/>
   </g>
   <g id="svg_20">
    <path fill="#FFF700" id="svg_21" d="m68.33549,27.03708c-0.08,0 -0.159,-0.026 -0.224,-0.085c-0.141,-0.12 -0.159,-0.337 -0.031,-0.48l9.558,-11.035c0.125,-0.141 0.34,-0.154 0.48,-0.026c0.144,0.117 0.157,0.334 0.034,0.476l-9.563,11.037c-0.062,0.074 -0.158,0.113 -0.254,0.113z"/>
   </g>
   <g id="svg_22">
    <path fill="#FFF700" id="svg_23" d="m52.28449,44.78308c-0.09,0 -0.181,-0.038 -0.245,-0.109c-0.132,-0.138 -0.124,-0.348 0.012,-0.478l13.724,-13.035c0.135,-0.13 0.351,-0.125 0.482,0.016c0.128,0.133 0.123,0.351 -0.014,0.481l-13.724,13.027c-0.065,0.066 -0.15,0.098 -0.235,0.098z"/>
   </g>
   <g id="svg_24">
    <path id="svg_25" d="m19.16449,77.44808c-0.093,0 -0.189,-0.031 -0.255,-0.105c-0.123,-0.142 -0.112,-0.355 0.026,-0.481l1.243,-1.115c0.143,-0.13 0.356,-0.116 0.478,0.026c0.128,0.136 0.117,0.351 -0.021,0.479l-1.244,1.113c-0.066,0.06 -0.148,0.083 -0.227,0.083z" fill="#FFF700"/>
   </g>
   <g id="svg_26">
    <path fill="#FFF700" id="svg_27" d="m57.95949,40.70708c-0.099,0 -0.194,-0.042 -0.267,-0.122c-0.113,-0.151 -0.09,-0.361 0.056,-0.483l25.008,-19.924c0.151,-0.12 0.359,-0.093 0.481,0.05c0.116,0.146 0.091,0.362 -0.059,0.481l-25.007,19.924c-0.059,0.056 -0.133,0.074 -0.212,0.074z"/>
   </g>
   <g id="svg_28">
    <path fill="#FFF700" id="svg_29" d="m57.13049,42.98908c-0.122,0 -0.234,-0.058 -0.298,-0.167c-0.093,-0.159 -0.037,-0.372 0.122,-0.464l9.744,-5.752c0.162,-0.103 0.366,-0.047 0.462,0.117c0.102,0.162 0.043,0.372 -0.117,0.468l-9.743,5.751c-0.056,0.037 -0.117,0.047 -0.17,0.047z"/>
   </g>
   <g id="svg_30">
    <path fill="#FFF700" id="svg_31" d="m74.25649,33.90208c-0.119,0 -0.231,-0.064 -0.295,-0.173c-0.09,-0.165 -0.037,-0.369 0.13,-0.467l12.749,-7.183c0.164,-0.087 0.371,-0.034 0.462,0.13c0.096,0.162 0.037,0.372 -0.122,0.459l-12.754,7.189c-0.056,0.031 -0.111,0.045 -0.17,0.045z"/>
   </g>
   <g id="svg_32">
    <path fill="#FFF700" id="svg_33" d="m71.41649,35.16408c-0.117,0 -0.228,-0.064 -0.292,-0.165c-0.096,-0.165 -0.042,-0.372 0.117,-0.468l0.93,-0.555c0.167,-0.098 0.371,-0.045 0.468,0.117c0.096,0.162 0.042,0.375 -0.123,0.467l-0.927,0.556c-0.051,0.032 -0.114,0.048 -0.173,0.048z"/>
   </g>
   <g id="svg_34">
    <path id="svg_35" d="m10.06549,64.61808c-0.138,0 -0.266,-0.082 -0.321,-0.213c-0.063,-0.183 0.021,-0.376 0.196,-0.443l6.939,-2.68c0.172,-0.064 0.372,0.018 0.436,0.196c0.074,0.178 -0.016,0.371 -0.191,0.438l-6.939,2.677c-0.037,0.02 -0.08,0.025 -0.12,0.025z" fill="#FFF700"/>
   </g>
   <g id="svg_36">
    <path fill="#FFF700" id="svg_37" d="m83.95449,35.12908c-0.138,0 -0.275,-0.096 -0.318,-0.239c-0.061,-0.181 0.037,-0.366 0.213,-0.422l5.493,-1.804c0.184,-0.056 0.374,0.038 0.436,0.215c0.059,0.178 -0.042,0.375 -0.218,0.431l-5.496,1.801c-0.037,0.01 -0.072,0.018 -0.11,0.018z"/>
   </g>
   <g id="svg_38">
    <path fill="#FFF700" id="svg_39" d="m59.39949,43.32408c-0.144,0 -0.276,-0.093 -0.324,-0.237c-0.062,-0.175 0.037,-0.372 0.218,-0.425l22.75,-7.568c0.178,-0.064 0.369,0.037 0.431,0.218c0.059,0.178 -0.037,0.372 -0.219,0.431l-22.749,7.563c-0.033,0.01 -0.073,0.018 -0.107,0.018z"/>
   </g>
   <g id="svg_40">
    <path fill="#FFF700" id="svg_41" d="m58.32549,44.59708c-0.165,0 -0.309,-0.117 -0.332,-0.287c-0.029,-0.183 0.093,-0.364 0.279,-0.391l10.894,-1.793c0.188,-0.021 0.361,0.093 0.391,0.279c0.032,0.188 -0.096,0.361 -0.278,0.393l-10.893,1.793c-0.018,0.006 -0.04,0.006 -0.061,0.006z"/>
   </g>
   <g id="svg_42">
    <path fill="#FFF700" id="svg_43" d="m77.03749,42.19308c-0.164,0 -0.313,-0.111 -0.341,-0.282c-0.025,-0.188 0.102,-0.364 0.288,-0.393l13.662,-2.287c0.183,-0.026 0.36,0.09 0.391,0.279c0.028,0.186 -0.096,0.361 -0.279,0.394l-13.667,2.284c-0.019,0.005 -0.035,0.005 -0.054,0.005z"/>
   </g>
   <g id="svg_44">
    <path fill="#FFF700" id="svg_45" d="m90.42349,42.29608c-0.178,0 -0.329,-0.141 -0.343,-0.321c-0.011,-0.189 0.128,-0.345 0.324,-0.359l2.997,-0.199c0.186,-0.018 0.351,0.13 0.36,0.324c0.017,0.184 -0.13,0.345 -0.312,0.359l-3.007,0.196c-0.005,0 -0.013,0 -0.019,0z"/>
   </g>
   <g id="svg_46">
    <path fill="#FFF700" id="svg_47" d="m91.63249,47.15008c-0.003,0 -0.008,0 -0.011,0l-37.482,-1.158c-0.187,-0.008 -0.335,-0.165 -0.324,-0.354c0.003,-0.186 0.16,-0.329 0.351,-0.324l37.478,1.159c0.186,0.005 0.334,0.162 0.329,0.353c-0.007,0.18 -0.16,0.324 -0.341,0.324z"/>
   </g>
   <g id="svg_48">
    <path fill="#FFF700" id="svg_49" d="m69.20049,49.48208c-0.015,0 -0.042,0 -0.065,-0.007l-9.952,-1.893c-0.183,-0.037 -0.305,-0.217 -0.268,-0.404c0.031,-0.186 0.21,-0.305 0.398,-0.267l9.951,1.891c0.186,0.04 0.308,0.216 0.273,0.401c-0.034,0.165 -0.176,0.279 -0.337,0.279z"/>
   </g>
   <g id="svg_50">
    <path fill="#FFF700" id="svg_51" d="m71.14249,48.91308c-0.023,0 -0.045,0 -0.07,-0.005l-0.58,-0.125c-0.181,-0.034 -0.3,-0.221 -0.265,-0.401c0.042,-0.186 0.22,-0.301 0.409,-0.263l0.578,0.125c0.181,0.036 0.298,0.218 0.261,0.403c-0.032,0.155 -0.176,0.266 -0.333,0.266z"/>
   </g>
   <g id="svg_52">
    <path fill="#FFF700" id="svg_53" d="m91.23949,55.02408c-0.035,0 -0.07,-0.006 -0.099,-0.014l-18.747,-5.725c-0.181,-0.059 -0.281,-0.244 -0.229,-0.428c0.054,-0.179 0.244,-0.286 0.428,-0.227l18.739,5.729c0.183,0.056 0.283,0.244 0.23,0.422c-0.046,0.149 -0.176,0.243 -0.322,0.243z"/>
   </g>
   <g id="svg_54">
    <path fill="#FFF700" id="svg_55" d="m89.12449,61.38308c-0.04,0 -0.085,-0.005 -0.127,-0.021l-33.711,-13.528c-0.176,-0.062 -0.26,-0.265 -0.191,-0.44c0.069,-0.175 0.266,-0.258 0.44,-0.183l33.716,13.521c0.176,0.068 0.261,0.262 0.192,0.438c-0.053,0.13 -0.184,0.213 -0.319,0.213z"/>
   </g>
   <g id="svg_56">
    <path fill="#FFF700" id="svg_57" d="m70.47149,55.41608c-0.048,0 -0.102,-0.013 -0.146,-0.039l-0.577,-0.274c-0.163,-0.085 -0.238,-0.289 -0.153,-0.451c0.08,-0.172 0.282,-0.244 0.451,-0.165l0.577,0.285c0.168,0.076 0.236,0.283 0.157,0.454c-0.06,0.119 -0.179,0.19 -0.309,0.19z"/>
   </g>
   <g id="svg_58">
    <path fill="#FFF700" id="svg_59" d="m71.95249,56.20208c-0.062,0 -0.121,-0.013 -0.177,-0.048l-0.429,-0.255c-0.158,-0.093 -0.215,-0.3 -0.122,-0.465c0.096,-0.158 0.301,-0.215 0.463,-0.122l0.433,0.261c0.162,0.09 0.218,0.295 0.122,0.464c-0.057,0.102 -0.177,0.165 -0.29,0.165z"/>
   </g>
   <g id="svg_60">
    <path fill="#FFF700" id="svg_61" d="m73.69549,57.12708c-0.054,0 -0.116,-0.011 -0.17,-0.04l-0.653,-0.38c-0.165,-0.096 -0.219,-0.308 -0.128,-0.465c0.097,-0.167 0.306,-0.223 0.462,-0.127l0.659,0.379c0.165,0.094 0.221,0.306 0.125,0.466c-0.06,0.109 -0.175,0.167 -0.295,0.167z"/>
   </g>
   <g id="svg_62">
    <path fill="#FFF700" id="svg_63" d="m74.59349,63.16508c-0.068,0 -0.144,-0.021 -0.201,-0.063l-13.288,-9.606c-0.154,-0.114 -0.186,-0.323 -0.074,-0.48c0.105,-0.151 0.324,-0.187 0.473,-0.077l13.29,9.608c0.151,0.114 0.187,0.327 0.075,0.479c-0.065,0.091 -0.172,0.139 -0.275,0.139z"/>
   </g>
   <g id="svg_64">
    <path fill="#FFF700" id="svg_65" d="m85.68249,68.18108c-0.064,0 -0.123,-0.021 -0.184,-0.056l-12.393,-7.93c-0.16,-0.104 -0.207,-0.309 -0.106,-0.47c0.106,-0.157 0.316,-0.208 0.471,-0.104l12.397,7.926c0.154,0.106 0.204,0.319 0.106,0.471c-0.069,0.107 -0.18,0.163 -0.291,0.163z"/>
   </g>
   <g id="svg_66">
    <path fill="#FFF700" id="svg_67" d="m89.90449,70.87208c-0.062,0 -0.132,-0.022 -0.19,-0.062l-2.848,-1.973c-0.154,-0.106 -0.194,-0.319 -0.085,-0.476c0.106,-0.151 0.319,-0.194 0.468,-0.088l2.854,1.977c0.152,0.108 0.19,0.318 0.082,0.476c-0.062,0.095 -0.168,0.146 -0.281,0.146z"/>
   </g>
   <g id="svg_68">
    <path fill="#FFF700" id="svg_69" d="m81.07049,73.55508c-0.082,0 -0.159,-0.032 -0.228,-0.093l-26.939,-24.722c-0.141,-0.127 -0.149,-0.345 -0.02,-0.485c0.126,-0.133 0.341,-0.141 0.479,-0.02l26.937,24.729c0.145,0.125 0.154,0.34 0.027,0.479c-0.073,0.072 -0.161,0.112 -0.256,0.112z"/>
   </g>
   <g id="svg_70">
    <path fill="#FFF700" id="svg_71" d="m70.04549,67.22508c-0.087,0 -0.175,-0.032 -0.244,-0.099l-11.912,-12.422c-0.132,-0.135 -0.124,-0.345 0.011,-0.48c0.139,-0.131 0.352,-0.122 0.48,0.01l11.915,12.42c0.128,0.136 0.125,0.348 -0.013,0.481c-0.066,0.062 -0.151,0.09 -0.237,0.09z"/>
   </g>
   <g id="svg_72">
    <path fill="#FFF700" id="svg_73" d="m65.92849,66.15608c-0.106,0 -0.196,-0.04 -0.269,-0.119l-5.81,-7.035c-0.122,-0.148 -0.101,-0.358 0.045,-0.475c0.146,-0.12 0.354,-0.099 0.477,0.045l5.813,7.026c0.12,0.146 0.1,0.363 -0.045,0.483c-0.062,0.055 -0.14,0.075 -0.211,0.075z"/>
   </g>
   <g id="svg_74">
    <path fill="#FFF700" id="svg_75" d="m76.38149,77.88808c-0.095,0 -0.19,-0.041 -0.252,-0.12l-9.032,-10.554c-0.122,-0.144 -0.102,-0.361 0.037,-0.48c0.144,-0.128 0.355,-0.106 0.48,0.034l9.024,10.562c0.122,0.146 0.106,0.355 -0.037,0.478c-0.057,0.055 -0.143,0.08 -0.22,0.08z"/>
   </g>
   <g id="svg_76">
    <path fill="#FFF700" id="svg_77" d="m69.68549,79.99108c-0.123,0 -0.231,-0.059 -0.298,-0.17l-17.328,-29.728c-0.093,-0.165 -0.04,-0.372 0.119,-0.466c0.165,-0.09 0.378,-0.036 0.465,0.129l17.334,29.729c0.096,0.156 0.037,0.368 -0.123,0.467c-0.059,0.027 -0.117,0.039 -0.169,0.039z"/>
   </g>
   <g id="svg_78">
    <path fill="#FFF700" id="svg_79" d="m70.86649,82.35808c-0.114,0 -0.227,-0.053 -0.289,-0.151l-0.633,-1.007c-0.099,-0.161 -0.054,-0.371 0.106,-0.47c0.165,-0.101 0.372,-0.056 0.473,0.109l0.627,1.002c0.101,0.159 0.053,0.371 -0.106,0.472c-0.053,0.035 -0.116,0.045 -0.178,0.045z"/>
   </g>
   <g id="svg_80">
    <path fill="#FFF700" id="svg_81" d="m75.02449,82.45608c-0.108,0 -0.218,-0.051 -0.284,-0.144l-5.284,-7.637c-0.104,-0.154 -0.063,-0.364 0.091,-0.476c0.156,-0.104 0.366,-0.063 0.473,0.091l5.281,7.637c0.106,0.151 0.069,0.364 -0.085,0.468c-0.062,0.044 -0.131,0.061 -0.192,0.061z"/>
   </g>
   <g id="svg_82">
    <path fill="#FFF700" id="svg_83" d="m64.58949,84.84208c-0.144,0 -0.273,-0.085 -0.321,-0.221l-7.82,-21.671c-0.062,-0.175 0.029,-0.372 0.204,-0.436c0.181,-0.064 0.377,0.028 0.438,0.207l7.817,21.669c0.064,0.181 -0.028,0.366 -0.207,0.436c-0.037,0.014 -0.074,0.016 -0.111,0.016z"/>
   </g>
   <g id="svg_84">
    <path fill="#FFF700" id="svg_85" d="m58.07049,75.46208c-0.148,0 -0.288,-0.099 -0.33,-0.25l-7.036,-24.965c-0.051,-0.181 0.05,-0.374 0.235,-0.422c0.185,-0.046 0.367,0.052 0.42,0.236l7.034,24.968c0.054,0.175 -0.053,0.368 -0.233,0.416c-0.031,0.011 -0.058,0.017 -0.09,0.017z"/>
   </g>
   <g id="svg_86">
    <path fill="#FFF700" id="svg_87" d="m56.79549,86.56408c-0.165,0 -0.309,-0.114 -0.337,-0.279l-4.731,-27.38c-0.029,-0.188 0.096,-0.364 0.282,-0.394c0.18,-0.031 0.36,0.091 0.393,0.276l4.729,27.383c0.026,0.183 -0.094,0.356 -0.276,0.388c-0.023,0.006 -0.044,0.006 -0.06,0.006z"/>
   </g>
   <g id="svg_88">
    <path fill="#FFF700" id="svg_89" d="m57.63049,90.60208c-0.16,0 -0.299,-0.112 -0.336,-0.271l-0.355,-1.822c-0.037,-0.186 0.085,-0.361 0.271,-0.394c0.181,-0.042 0.362,0.078 0.398,0.264l0.356,1.819c0.037,0.187 -0.085,0.363 -0.271,0.401c-0.021,0.003 -0.042,0.003 -0.063,0.003z"/>
   </g>
   <g id="svg_90">
    <path fill="#FFF700" id="svg_91" d="m50.34249,87.15808c-0.188,0 -0.337,-0.151 -0.343,-0.34l-0.339,-34.338c-0.006,-0.186 0.144,-0.348 0.334,-0.348l0,0c0.192,0 0.34,0.154 0.346,0.338l0.345,34.339c0,0.192 -0.151,0.349 -0.34,0.349l-0.003,0z"/>
   </g>
   <g id="svg_92">
    <path fill="#FFF700" id="svg_93" d="m44.44549,77.82908c-0.026,0 -0.053,-0.006 -0.083,-0.008c-0.18,-0.048 -0.294,-0.233 -0.25,-0.415l3.69,-15.474c0.042,-0.181 0.226,-0.298 0.412,-0.249c0.181,0.045 0.292,0.223 0.252,0.405l-3.695,15.475c-0.036,0.16 -0.174,0.266 -0.326,0.266z"/>
   </g>
   <g id="svg_94">
    <path fill="#FFF700" id="svg_95" d="m42.72449,86.32408c-0.024,0 -0.045,0 -0.072,-0.006c-0.175,-0.034 -0.303,-0.215 -0.266,-0.393l1.424,-7.263c0.037,-0.181 0.212,-0.303 0.398,-0.268c0.183,0.036 0.303,0.212 0.269,0.402l-1.421,7.253c-0.032,0.163 -0.175,0.275 -0.332,0.275z"/>
   </g>
   <g id="svg_96">
    <path fill="#FFF700" id="svg_97" d="m41.70649,70.68408c-0.037,0 -0.08,-0.006 -0.117,-0.017c-0.178,-0.069 -0.266,-0.261 -0.202,-0.446l6.216,-16.425c0.069,-0.178 0.263,-0.268 0.441,-0.199c0.175,0.066 0.261,0.261 0.197,0.438l-6.216,16.427c-0.048,0.144 -0.181,0.222 -0.319,0.222z"/>
   </g>
   <g id="svg_98">
    <path fill="#FFF700" id="svg_99" d="m36.72349,84.51008c-0.043,0 -0.083,-0.003 -0.122,-0.019c-0.175,-0.069 -0.266,-0.266 -0.197,-0.44l4.697,-12.391c0.063,-0.175 0.263,-0.269 0.436,-0.202c0.181,0.075 0.263,0.27 0.196,0.444l-4.691,12.388c-0.054,0.141 -0.181,0.22 -0.319,0.22z"/>
   </g>
   <g id="svg_100">
    <path fill="#FFF700" id="svg_101" d="m39.09549,71.67708c-0.05,0 -0.104,-0.017 -0.151,-0.032c-0.17,-0.085 -0.239,-0.292 -0.154,-0.459l5.039,-10.175c0.082,-0.168 0.284,-0.236 0.455,-0.151c0.17,0.079 0.239,0.286 0.159,0.454l-5.044,10.172c-0.062,0.119 -0.179,0.191 -0.304,0.191z"/>
   </g>
   <g id="svg_102">
    <path fill="#FFF700" id="svg_103" d="m29.97049,81.14208c-0.059,0 -0.123,-0.014 -0.181,-0.048c-0.16,-0.096 -0.208,-0.306 -0.112,-0.465l18.569,-30.425c0.096,-0.156 0.309,-0.21 0.465,-0.114c0.163,0.101 0.21,0.306 0.115,0.465l-18.569,30.43c-0.063,0.104 -0.17,0.157 -0.287,0.157z"/>
   </g>
   <g id="svg_104">
    <path fill="#FFF700" id="svg_105" d="m27.50549,85.18508c-0.066,0 -0.127,-0.021 -0.191,-0.059c-0.154,-0.098 -0.196,-0.313 -0.095,-0.468l1.758,-2.69c0.101,-0.162 0.314,-0.208 0.468,-0.102c0.165,0.104 0.202,0.316 0.101,0.471l-1.759,2.691c-0.065,0.098 -0.173,0.157 -0.282,0.157z"/>
   </g>
   <g id="svg_106">
    <path fill="#FFF700" id="svg_107" d="m34.80549,65.24208c-0.085,0 -0.159,-0.026 -0.226,-0.079c-0.146,-0.12 -0.156,-0.337 -0.037,-0.476l6.891,-8.193c0.12,-0.148 0.337,-0.169 0.48,-0.045c0.144,0.126 0.165,0.332 0.043,0.481l-6.894,8.195c-0.071,0.08 -0.167,0.117 -0.257,0.117z"/>
   </g>
   <g id="svg_108">
    <path fill="#FFF700" id="svg_109" d="m24.43449,77.31108c-0.085,0 -0.165,-0.028 -0.229,-0.085c-0.141,-0.122 -0.154,-0.34 -0.032,-0.48l9.718,-11.117c0.117,-0.141 0.334,-0.154 0.478,-0.029c0.138,0.122 0.154,0.335 0.026,0.476l-9.707,11.122c-0.063,0.076 -0.161,0.113 -0.254,0.113z"/>
   </g>
   <g id="svg_110">
    <path fill="#FFF700" id="svg_111" d="m34.34849,62.45008c-0.096,0 -0.184,-0.037 -0.248,-0.109c-0.13,-0.132 -0.122,-0.353 0.013,-0.478l12.284,-11.44c0.133,-0.134 0.351,-0.12 0.478,0.012c0.128,0.144 0.123,0.352 -0.016,0.481l-12.28,11.444c-0.067,0.067 -0.149,0.09 -0.231,0.09z"/>
   </g>
   <g id="svg_112">
    <path fill="#FFF700" id="svg_113" d="m30.14049,63.19208c-0.104,0 -0.202,-0.048 -0.266,-0.133c-0.122,-0.143 -0.096,-0.361 0.053,-0.48l13.043,-10.368c0.151,-0.117 0.361,-0.09 0.481,0.056c0.114,0.146 0.087,0.356 -0.056,0.48l-13.045,10.37c-0.064,0.048 -0.135,0.075 -0.21,0.075z"/>
   </g>
   <g id="svg_114">
    <path fill="#FFF700" id="svg_115" d="m19.52249,71.75308c-0.104,0 -0.199,-0.042 -0.266,-0.121c-0.122,-0.151 -0.095,-0.359 0.051,-0.481l9.608,-7.717c0.146,-0.119 0.361,-0.098 0.476,0.046c0.122,0.148 0.101,0.362 -0.048,0.482l-9.611,7.72c-0.058,0.051 -0.138,0.071 -0.21,0.071z"/>
   </g>
   <g id="svg_116">
    <path fill="#FFF700" id="svg_117" d="m84.86149,21.84408c-0.104,0 -0.199,-0.048 -0.263,-0.135c-0.122,-0.141 -0.099,-0.359 0.048,-0.476l2.17,-1.748c0.141,-0.119 0.364,-0.095 0.479,0.056c0.119,0.141 0.093,0.355 -0.051,0.476l-2.173,1.75c-0.059,0.051 -0.133,0.077 -0.21,0.077z"/>
   </g>
   <g id="svg_118">
    <path fill="#FFF700" id="svg_119" d="m13.81949,66.53708c-0.125,0 -0.244,-0.064 -0.303,-0.174c-0.09,-0.173 -0.024,-0.379 0.138,-0.462l13.67,-7.3c0.168,-0.082 0.373,-0.023 0.457,0.141c0.09,0.167 0.032,0.369 -0.135,0.462l-13.668,7.298c-0.053,0.026 -0.106,0.035 -0.159,0.035z"/>
   </g>
   <g id="svg_120">
    <path fill="#FFF700" id="svg_121" d="m28.88649,58.57808c-0.122,0 -0.237,-0.067 -0.297,-0.187c-0.091,-0.159 -0.032,-0.363 0.133,-0.457l0.818,-0.444c0.159,-0.093 0.372,-0.028 0.457,0.134c0.09,0.164 0.032,0.371 -0.136,0.459l-0.815,0.447c-0.051,0.029 -0.106,0.048 -0.16,0.048z"/>
   </g>
   <g id="svg_122">
    <path fill="#FFF700" id="svg_123" d="m31.94149,54.83708c-0.143,0 -0.271,-0.088 -0.321,-0.229c-0.061,-0.18 0.032,-0.369 0.209,-0.438l16.12,-5.587c0.184,-0.061 0.372,0.029 0.431,0.207c0.066,0.179 -0.029,0.372 -0.208,0.431l-16.12,5.597c-0.036,0.016 -0.071,0.019 -0.111,0.019z"/>
   </g>
   <g id="svg_124">
    <path fill="#FFF700" id="svg_125" d="m29.74749,55.54108c-0.136,0 -0.263,-0.085 -0.316,-0.223c-0.066,-0.176 0.024,-0.37 0.196,-0.434l1.167,-0.436c0.175,-0.062 0.369,0.027 0.436,0.202c0.069,0.173 -0.021,0.366 -0.197,0.433l-1.163,0.437c-0.044,0.015 -0.086,0.021 -0.123,0.021z"/>
   </g>
   <g id="svg_126">
    <path fill="#FFF700" id="svg_127" d="m12.28949,59.81808c-0.144,0 -0.276,-0.093 -0.322,-0.239c-0.061,-0.176 0.041,-0.369 0.221,-0.426l32.462,-10.439c0.181,-0.053 0.372,0.046 0.431,0.223c0.053,0.182 -0.043,0.373 -0.218,0.432l-32.468,10.43c-0.037,0.009 -0.075,0.019 -0.106,0.019z"/>
   </g>
   <g id="svg_128">
    <path fill="#FFF700" id="svg_129" d="m92.51749,34.41408c-0.152,0 -0.284,-0.098 -0.327,-0.247c-0.053,-0.181 0.057,-0.37 0.233,-0.417l1.978,-0.548c0.18,-0.048 0.365,0.059 0.419,0.242c0.048,0.178 -0.062,0.361 -0.239,0.412l-1.974,0.547c-0.03,0.009 -0.061,0.011 -0.09,0.011z"/>
   </g>
   <g id="svg_130">
    <path id="svg_131" d="m18.16549,56.20508c-0.152,0 -0.293,-0.098 -0.333,-0.25c-0.045,-0.183 0.061,-0.369 0.242,-0.42l0.398,-0.104c0.184,-0.055 0.369,0.054 0.419,0.231c0.048,0.187 -0.061,0.374 -0.244,0.42l-0.398,0.111c-0.026,0.009 -0.058,0.012 -0.084,0.012z" fill="#FFF700"/>
   </g>
   <g id="svg_132">
    <path id="svg_133" d="m19.58949,55.88108c-0.149,0 -0.288,-0.101 -0.33,-0.254c-0.048,-0.179 0.061,-0.37 0.244,-0.415l0.393,-0.114c0.186,-0.043 0.372,0.062 0.425,0.241c0.045,0.182 -0.063,0.372 -0.244,0.423l-0.398,0.104c-0.029,0.01 -0.061,0.015 -0.09,0.015z" fill="#FFF700"/>
   </g>
   <g id="svg_134">
    <path id="svg_135" d="m21.03949,55.54908c-0.149,0 -0.287,-0.096 -0.33,-0.247c-0.042,-0.183 0.058,-0.372 0.244,-0.417l0.398,-0.111c0.181,-0.048 0.367,0.061 0.415,0.239c0.051,0.183 -0.056,0.364 -0.239,0.419l-0.398,0.109c-0.032,0.003 -0.058,0.008 -0.09,0.008z" fill="#FFF700"/>
   </g>
   <g id="svg_136">
    <path fill="#FFF700" id="svg_137" d="m26.03049,50.31808c-0.184,0 -0.332,-0.146 -0.337,-0.324c-0.011,-0.188 0.132,-0.348 0.324,-0.358l0.579,-0.016c0.175,0.007 0.346,0.141 0.351,0.323c0.008,0.191 -0.138,0.346 -0.324,0.359l-0.579,0.016c-0.005,0 -0.011,0 -0.014,0z"/>
   </g>
   <g id="svg_138">
    <path id="svg_139" d="m5.51249,52.21608c-0.175,0 -0.321,-0.137 -0.343,-0.312c-0.016,-0.186 0.123,-0.351 0.313,-0.367l19.403,-1.771c0.191,-0.024 0.356,0.118 0.375,0.306c0.013,0.188 -0.125,0.351 -0.311,0.368l-19.408,1.776c-0.011,0 -0.021,0 -0.029,0z" fill="#FFF700"/>
   </g>
   <g id="svg_140">
    <path fill="#FFF700" id="svg_141" d="m47.01449,46.98708l-0.003,0l-15.304,-0.271c-0.186,-0.005 -0.337,-0.157 -0.334,-0.345c0.005,-0.191 0.127,-0.335 0.348,-0.335l15.298,0.279c0.191,0 0.34,0.151 0.335,0.346c-0.005,0.183 -0.154,0.326 -0.34,0.326z"/>
   </g>
   <g id="svg_142">
    <path fill="#FFF700" id="svg_143" d="m30.27349,46.53108c-0.186,0 -0.34,-0.152 -0.34,-0.335c0,-0.197 0.154,-0.343 0.34,-0.348l0.351,0l0.003,0c0.189,0 0.337,0.149 0.337,0.337c0.005,0.188 -0.148,0.346 -0.335,0.346l-0.351,0l-0.005,0z"/>
   </g>
   <g id="svg_144">
    <path fill="#FFF700" id="svg_145" d="m29.15449,46.35508c0,0 0,0 -0.003,0l-19.153,-0.207c-0.186,0 -0.335,-0.157 -0.335,-0.343c0,-0.188 0.154,-0.319 0.345,-0.34l19.154,0.208c0.183,0 0.337,0.154 0.334,0.337c0.001,0.194 -0.153,0.345 -0.342,0.345z"/>
   </g>
   <g id="svg_146">
    <path id="svg_147" d="m24.92349,41.31008c-0.026,0 -0.048,0 -0.074,-0.007l-13.744,-2.87c-0.181,-0.04 -0.303,-0.217 -0.266,-0.409c0.043,-0.178 0.223,-0.3 0.409,-0.258l13.739,2.872c0.186,0.04 0.303,0.221 0.266,0.396c-0.033,0.17 -0.176,0.276 -0.33,0.276z" fill="#FFF700"/>
   </g>
   <g id="svg_148">
    <path fill="#FFF700" id="svg_149" d="m47.99149,44.52208c-0.053,0 -0.106,-0.011 -0.154,-0.035l-24.88,-12.424c-0.17,-0.085 -0.239,-0.292 -0.152,-0.462c0.083,-0.163 0.288,-0.231 0.46,-0.149l24.875,12.424c0.167,0.088 0.236,0.292 0.154,0.459c-0.058,0.121 -0.181,0.187 -0.303,0.187z"/>
   </g>
   <g id="svg_150">
    <path fill="#FFF700" id="svg_151" d="m44.11849,45.71208c-0.032,0 -0.074,-0.01 -0.111,-0.019l-17.992,-6.144c-0.175,-0.062 -0.271,-0.25 -0.21,-0.431c0.059,-0.178 0.25,-0.268 0.43,-0.21l17.99,6.139c0.181,0.059 0.276,0.255 0.218,0.431c-0.051,0.144 -0.186,0.234 -0.325,0.234z"/>
   </g>
   <g id="svg_152">
    <path fill="#FFF700" id="svg_153" d="m38.94949,42.55108c-0.037,0 -0.085,-0.008 -0.122,-0.021l-25.903,-10.544c-0.172,-0.069 -0.258,-0.266 -0.184,-0.441c0.064,-0.175 0.269,-0.258 0.439,-0.191l25.9,10.541c0.175,0.074 0.255,0.268 0.188,0.443c-0.055,0.133 -0.185,0.213 -0.318,0.213z"/>
   </g>
   <g id="svg_154">
    <path id="svg_155" d="m11.90649,31.36208c-0.038,0 -0.08,-0.008 -0.117,-0.024l-2.556,-0.99c-0.18,-0.072 -0.266,-0.264 -0.197,-0.441c0.07,-0.175 0.266,-0.266 0.441,-0.194l2.553,0.999c0.175,0.064 0.262,0.258 0.196,0.434c-0.049,0.131 -0.179,0.216 -0.32,0.216z" fill="#FFF700"/>
   </g>
   <g id="svg_156">
    <path fill="#FFF700" id="svg_157" d="m28.36049,32.36308c-0.063,0 -0.127,-0.023 -0.181,-0.053l-12.225,-7.44c-0.16,-0.093 -0.21,-0.303 -0.112,-0.465c0.096,-0.157 0.308,-0.209 0.468,-0.111l12.225,7.43c0.159,0.103 0.21,0.313 0.114,0.473c-0.066,0.105 -0.172,0.166 -0.289,0.166z"/>
   </g>
   <g id="svg_158">
    <path fill="#FFF700" id="svg_159" d="m46.29749,41.96908c-0.08,0 -0.16,-0.024 -0.22,-0.077l-25.973,-22.296c-0.141,-0.119 -0.157,-0.337 -0.038,-0.475c0.127,-0.146 0.34,-0.162 0.484,-0.037l25.967,22.293c0.146,0.117 0.162,0.332 0.04,0.479c-0.069,0.071 -0.165,0.113 -0.26,0.113z"/>
   </g>
   <g id="svg_160">
    <path id="svg_161" d="m18.82149,18.54208c-0.077,0 -0.152,-0.029 -0.215,-0.077l-2.665,-2.174c-0.141,-0.117 -0.167,-0.332 -0.045,-0.475c0.117,-0.146 0.335,-0.167 0.478,-0.053l2.662,2.176c0.143,0.117 0.17,0.329 0.048,0.476c-0.064,0.085 -0.165,0.127 -0.263,0.127z" fill="#FFF700"/>
   </g>
   <g id="svg_162">
    <path fill="#FFF700" id="svg_163" d="m37.66349,29.54808c-0.106,0 -0.208,-0.048 -0.273,-0.138l-11.527,-15.209c-0.112,-0.151 -0.085,-0.359 0.066,-0.476c0.152,-0.117 0.364,-0.085 0.476,0.063l11.526,15.211c0.115,0.149 0.083,0.367 -0.061,0.476c-0.064,0.054 -0.138,0.073 -0.207,0.073z"/>
   </g>
   <g id="svg_164">
    <path fill="#FFF700" id="svg_165" d="m39.03449,31.55608c-0.101,0 -0.202,-0.048 -0.266,-0.135l-0.38,-0.492c-0.114,-0.151 -0.087,-0.361 0.064,-0.476c0.146,-0.117 0.361,-0.087 0.476,0.059l0.382,0.497c0.112,0.148 0.085,0.361 -0.063,0.476c-0.064,0.044 -0.139,0.071 -0.213,0.071z"/>
   </g>
   <g id="svg_166">
    <path fill="#FFF700" id="svg_167" d="m48.73649,42.63108c-0.12,0 -0.239,-0.064 -0.298,-0.181l-13.798,-25.659c-0.085,-0.165 -0.027,-0.369 0.141,-0.459c0.167,-0.093 0.372,-0.024 0.459,0.138l13.798,25.662c0.085,0.165 0.023,0.369 -0.138,0.462c-0.059,0.023 -0.112,0.037 -0.164,0.037z"/>
   </g>
   <g id="svg_168">
    <path fill="#FFF700" id="svg_169" d="m34.19949,15.61208c-0.125,0 -0.245,-0.066 -0.306,-0.188l-2.745,-5.366c-0.084,-0.162 -0.021,-0.37 0.149,-0.454c0.167,-0.085 0.372,-0.021 0.457,0.146l2.747,5.371c0.083,0.163 0.017,0.369 -0.148,0.455c-0.048,0.023 -0.103,0.036 -0.154,0.036z"/>
   </g>
   <g id="svg_170">
    <path fill="#FFF700" id="svg_171" d="m30.83949,9.30808c-0.125,0 -0.242,-0.069 -0.303,-0.189l-0.337,-0.667c-0.082,-0.172 -0.019,-0.38 0.151,-0.465c0.17,-0.077 0.375,-0.011 0.454,0.157l0.34,0.667c0.082,0.17 0.016,0.377 -0.154,0.46c-0.047,0.018 -0.104,0.037 -0.151,0.037z"/>
   </g>
   <g id="svg_172">
    <path fill="#FFF700" id="svg_173" d="m48.10949,39.20408c-0.133,0 -0.258,-0.077 -0.313,-0.208l-8.474,-19.4c-0.074,-0.175 0.003,-0.375 0.175,-0.446c0.172,-0.077 0.375,0.003 0.446,0.173l8.477,19.403c0.074,0.175 -0.002,0.375 -0.173,0.449c-0.048,0.018 -0.091,0.029 -0.138,0.029z"/>
   </g>
   <g id="svg_174">
    <path fill="#FFF700" id="svg_175" d="m42.80649,22.18108c-0.138,0 -0.271,-0.083 -0.319,-0.226l-5.427,-15.089c-0.061,-0.175 0.029,-0.369 0.205,-0.433c0.181,-0.069 0.375,0.026 0.436,0.202l5.425,15.089c0.063,0.175 -0.027,0.375 -0.208,0.438c-0.037,0.014 -0.075,0.019 -0.112,0.019z"/>
   </g>
   <g id="svg_176">
    <path fill="#FFF700" id="svg_177" d="m50.30349,40.82208c-0.162,0 -0.309,-0.12 -0.333,-0.29l-5.437,-35.28c-0.026,-0.188 0.101,-0.364 0.29,-0.388s0.359,0.098 0.385,0.284l5.435,35.278c0.032,0.188 -0.096,0.361 -0.281,0.396c-0.022,0 -0.035,0 -0.059,0z"/>
   </g>
   <g id="svg_178">
    <path fill="#FFF700" id="svg_179" d="m51.25649,38.21808c-0.179,0 -0.324,-0.138 -0.339,-0.311l-1.892,-23.95c-0.013,-0.184 0.127,-0.351 0.313,-0.367c0.189,-0.021 0.349,0.128 0.367,0.311l1.888,23.954c0.012,0.183 -0.126,0.348 -0.312,0.364c-0.005,-0.001 -0.019,-0.001 -0.025,-0.001z"/>
   </g>
   <g id="svg_180">
    <path fill="#FFF700" id="svg_181" d="m54.64949,5.99008c-0.006,0 -0.011,0 -0.017,0c-0.19,-0.01 -0.334,-0.169 -0.323,-0.356l0.138,-2.911c0.011,-0.189 0.176,-0.34 0.356,-0.324c0.188,0.007 0.334,0.172 0.324,0.356l-0.145,2.911c-0.001,0.183 -0.153,0.324 -0.333,0.324z"/>
   </g>
   <g id="svg_182">
    <path fill="#FFF700" id="svg_183" d="m52.12049,20.90308l-0.006,0c-0.187,0 -0.338,-0.157 -0.335,-0.34l0.165,-14.918c0.005,-0.187 0.154,-0.337 0.34,-0.337l0.005,0c0.187,0.008 0.337,0.159 0.337,0.348l-0.166,14.913c-0.006,0.183 -0.154,0.334 -0.34,0.334z"/>
   </g>
  </g>
 </g>
</svg>